name processed_emg_signals
nRows=61
nColumns=7
 
endheader
time	RGLTMED	RRF	RADDLONG	RBF	RTA	RGM
8.569999999999977	0.0311469409657894	0.0796411366576511	0.7155473057617525	0.0716115740904048	0.118311933506961	0.1246814259958204
8.579999999999977	0.0309317306481511	0.079145318710673	0.7141866496982106	0.0715442738412812	0.1181601808037688	0.1245107544405412
8.589999999999977	0.030723340387389	0.0786511910924122	0.7127170480643843	0.0714725097004836	0.117983989505814	0.1243326308317419
8.599999999999977	0.0305219746178291	0.0781593106815861	0.7111412251854281	0.0713963473976644	0.1177840367702111	0.1241475054597496
8.609999999999976	0.0303278248255251	0.0776702275305138	0.7094619275780518	0.0713158570090235	0.1175610233787167	0.1239558229864859
8.619999999999976	0.0301410696080956	0.0771844844596289	0.7076819245375442	0.0712311134614176	0.1173156726273424	0.1237580228750672
8.629999999999976	0.029961874751429	0.0767026166553285	0.7058040085562113	0.0711421970173081	0.1170487291580192	0.1235545398156614
8.639999999999976	0.0297903933224831	0.0762251512707946	0.7038309955552502	0.0710491937377018	0.1167609577356457	0.1233458041446727
8.649999999999975	0.0296267657773792	0.0757526070294506	0.7017657249148039	0.0709521959200382	0.1164531419737434	0.1231322422541895
8.659999999999975	0.0294711200839713	0.0752854938307429	0.6996110592903217	0.0708513025077526	0.1161260830120434	0.1229142769885157
8.669999999999975	0.0293235718580381	0.074824312357977	0.697369884207192	0.0707466194681955	0.1157805981497111	0.1226923280245463
8.679999999999975	0.0291842245122056	0.0743695536879447	0.6950451074297748	0.0706382601356065	0.1154175194384264	0.1224668122326115
8.689999999999975	0.0290531694166547	0.0739216989021012	0.6926396581054429	0.070526345516018	0.1150376922399343	0.1222381440143142
8.699999999999974	0.0289304860706004	0.0734812186991487	0.6901564856889276	0.0704110045510939	0.1146419737527733	0.1220067356138006
8.709999999999974	0.0288162422834837	0.0730485730090479	0.6875985586565645	0.0702923743381037	0.1142312315127535	0.1217729973988415
8.719999999999974	0.0287104943647591	0.0726242106086806	0.6849688630238734	0.070170600303415	0.1138063418715437	0.1215373381080688
8.729999999999974	0.0286132873211565	0.0722085687395351	0.682270400683085	0.0700458363271553	0.1133681884575044	0.1213001650606861
8.739999999999974	0.028524655060311	0.0718020727278196	0.6795061875795796	0.0699182448171035	0.1129176606227466	0.1210618843250833
8.749999999999973	0.0284446205997541	0.0714051356074491	0.6766792517471185	0.0697879967304287	0.1124556518803178	0.1208229008430746
8.759999999999973	0.0283731962803326	0.0710181577463915	0.6737926312216203	0.0696552715425401	0.111983058335452	0.1205836185068579
8.769999999999973	0.028310383983243	0.070641526477017	0.6708493718526028	0.0695202571629056	0.1115007771149481	0.120344440186172
8.779999999999973	0.0282561753499416	0.0702756157312461	0.6678525250306996	0.069383149798237	0.11100970479889	0.1201057677033991
8.789999999999973	0.0282105520043223	0.069920785681463	0.6648051453487378	0.0692441537640082	0.1105107358591593	0.1198680017546686
8.799999999999972	0.0281734857766197	0.069577382388308	0.6617102882128806	0.0691034812458868	0.1100047611094003	0.1196315417752931
8.809999999999972	0.0281449389285525	0.0692457374565977	0.6585710074195048	0.068961352013188	0.1094926661713095	0.1193967857482274
8.819999999999972	0.0281248643792821	0.0689261677007733	0.6553903527131293	0.0688179930868559	0.1089753299622282	0.1191641299547124
8.829999999999972	0.0281132059317825	0.0686189748213763	0.6521713673405095	0.0686736383646711	0.1084536232090322	0.1189339686669244
8.839999999999971	0.028109898499336	0.068324445094142	0.6489170856156881	0.0685285282064122	0.107928406993256	0.1187066937832781
8.849999999999971	0.0281148683319364	0.0680428490733196	0.645630530510333	0.0683829089816606	0.1074005313322045	0.11848269440794
8.859999999999971	0.0281280332424404	0.067774441310761	0.642314711283237	0.0682370325829518	0.1068708338005972	0.1182623563769231
8.86999999999997	0.0281493028323382	0.0675194600922669	0.6389726211622829	0.0680911559070345	0.1063401381970072	0.1180460617337148
8.87999999999997	0.0281785787170181	0.0672781271926081	0.6356072350914685	0.0679455403071214	0.1058092532590904	0.1178341881579359
8.88999999999997	0.028215754750407	0.0670506476506131	0.6322215075547166	0.067800451019053	0.1052789714312417	0.117627108350982
8.89999999999997	0.0282607172488596	0.066837209565658	0.6288183704872173	0.0676561565642681	0.1047500676879608	0.1174251893829752
8.90999999999997	0.0283133452141423	0.066637983916806	0.6254007312838116	0.0675129281323585	0.1042232984158278	0.11722879200552
8.91999999999997	0.0283735105553425	0.0664531244057054	0.6219714709123285	0.0673710389459224	0.1036994003566247	0.1170382699347658
8.92999999999997	0.0284410783094956	0.0662827673241984	0.6185334421380366	0.067230763610367	0.1031790896138155	0.116853969109184
8.93999999999997	0.0285159068607324	0.0661270314474399	0.6150894678638051	0.0670923774512998	0.1026630607242636	0.1166762269263371
8.949999999999969	0.0285978481577559	0.0659860179531731	0.6116423395894071	0.0669561558421726	0.1021519857967808	0.1165053714626723
8.959999999999969	0.028686747929499	0.0658598103677096	0.6081948159924605	0.0668223735248368	0.10164651371884	0.1163417206801877
8.969999999999969	0.0287824458988937	0.065748474539022	0.6047496216325255	0.0666913039256598	0.1011472694325859	0.1161855816236056
8.979999999999968	0.0288847759947969	0.0656520586373413	0.6013094457786984	0.0665632184698458	0.1006548532811213	0.1160372496115748
8.989999999999968	0.0289935665621778	0.0655705931836187	0.5978769413599297	0.066438385896581	0.1001698404259096	0.1158970074254082
8.999999999999968	0.029108640570752	0.0655040911062687	0.5944547240365233	0.0663170715776859	0.0996927803360217	0.1157651244989239
9.009999999999968	0.0292298158222945	0.0654525478266948	0.5910453713910507	0.0661995368424791	0.0992241963498309	0.115641856113023
9.019999999999968	0.0293569051569203	0.0654159413740926	0.5876514222371335	0.0660860383116075	0.0987645853096138	0.1155274425986188
9.029999999999967	0.0294897166586439	0.0653942325299754	0.5842753760452322	0.0659768272425544	0.0983144172693187	0.1154221085513887
9.039999999999967	0.0296280538605145	0.0653873650027049	0.5809196924854071	0.0658721488894498	0.0978741352755718	0.1153260620617045
9.049999999999967	0.0297717159495774	0.0653952656321499	0.5775867910875557	0.0657722418796362	0.0974441552217737	0.1152394939629679
9.059999999999967	0.0299204979718498	0.0654178446243642	0.5742790510196573	0.0656773376092756	0.0970248657749206	0.1151625771014845
9.069999999999967	0.0300741910374329	0.0654549958160002	0.5709988109841408	0.0655876596601086	0.0966166283745218	0.1150954656308658
9.079999999999966	0.0302325825258246	0.0655065969679645	0.5677483692317884	0.0655034232393494	0.0962197773026904	0.1150382943338183
9.089999999999966	0.030395456291472	0.0655725100876695	0.5645299836915366	0.0654248346445672	0.0958346198241571	0.1149911779740559
9.099999999999966	0.0305625928696037	0.0656525817790537	0.5613458722130878	0.0653520907552933	0.0954614363946503	0.1149542106809756
9.109999999999966	0.0307337696824048	0.0657466436193811	0.5581982129175717	0.0652853785529178	0.095100480935791	0.114927465369693
9.119999999999965	0.0309087612456469	0.0658545125616791	0.5550891446498559	0.0652248746702591	0.0947519811744055	0.1149109931990084
9.129999999999965	0.0310873393758843	0.065975991361604	0.5520207675245113	0.0651707449720074	0.0944161390439016	0.1149048230698263
9.139999999999965	0.0312692733983203	0.0661108690275665	0.5489951435558003	0.0651231441670706	0.0940931311450893	0.1149089611664775
9.149999999999965	0.0314543303554337	0.0662589212930484	0.5460142973602977	0.0650822154537175	0.0937831092635418	0.1149233905432656
9.159999999999965	0.0316422752164052	0.0664199111101221	0.5430802169191019	0.0650480901982446	0.0934862009403238	0.1149480707584021
9.169999999999964	0.0318328710873783	0.0665935891632639	0.540194854385323	0.0650208876477765	0.093202510092655	0.1149829375573764
